<svg width="545" height="153" viewBox="0 0 545 153" xmlns="http://www.w3.org/2000/svg">
    <path transform="scale(1, 1)" d="M0 24.48C0 10.9601 10.9601 0 24.48 0H520.2C533.72 0 544.68 10.9601 544.68 24.48V128.52C544.68 142.04 533.72 153 520.2 153H24.48C10.9601 153 0 142.04 0 128.52V24.48Z" fill="#fff1eb"/>
    <g transform="translate(20, -50) scale(4.2, 4.2)">
        <g fill="#222c31" transform="matrix(.05770525 0 0 .05770525 14.044352 21.072947)">
            <path d="m1680 272c-10.3 0-20.6 0-31.7 0 0-7.7 0-15.3 0-22.9-.1-29.5 0-59-.3-88.5-.3-23.1-17.7-43.9-40.3-48.6-31-6.5-62.5 18.6-62.6 50.4-.1 34.5.1 69 .2 103.5v6.2c-10.5 0-20.4 0-30.8 0 0-60.9 0-121.8 0-183.2h30.5v10.1c10-8.9 20.6-14.4 32.6-17.4 47.2-11.9 96.6 22.8 101.4 71.2.1 1.4.6 2.9.9 4.3.1 38.2.1 76.6.1 114.9z"/>
            <path d="m481.8 251.5v91.4c-10.5 0-20.4 0-30.6 0-.1-1.3-.3-2.6-.3-3.9 0-53.2-.2-106.3.1-159.5.3-48.1 34-88.7 81-98.2 56.5-11.4 111.8 28.3 119.2 85.5 7.3 56.4-31.5 107-88.1 113.8-29.7 3.5-55.3-6.7-77.3-26.5-1-.9-1.5-2.5-2.3-3.8-.6.4-1.1.8-1.7 1.2zm69.9-1.1c38.7-.1 69.6-31.3 69.6-70.1-.1-38.7-31.4-70-69.9-69.8-38.6.2-69.6 31.4-69.5 70.2-.1 38.6 31.1 69.8 69.8 69.7z"/>
            <path d="m1127.7 221.3c14.8 22.6 46.1 33.8 73.8 26.4 16.9-4.5 30.4-14.2 40.1-28.7s13.3-30.7 11.2-48.4h30.6c5.5 38.7-17.6 89.2-69.4 105.7-49 15.6-101.9-8.4-122.6-55.5-20.8-47.3-2.5-102.8 42.6-128.5 46.7-26.6 99-9.2 123.4 19.9-43.2 36.3-86.3 72.6-129.7 109.1zm-13-29.5c31.1-26.1 61.3-51.5 91.8-77.2-23.3-9.7-53-3.2-71.9 15.7-16.6 16.7-22.9 37-19.9 61.5z"/>
            <path d="m864 272.1c-10.5 0-20.5 0-30.9 0 0-6.2 0-12.1 0-18.9-1.6 1.3-2.5 2-3.3 2.7-57.3 49.6-145.6 22-164.2-51.3-17.1-67.6 38.5-131.9 107.8-124.9 51 5.2 90 47.7 90.5 98.9.3 30 .1 60 .1 90zm-170.5-92.1c-.1 38.4 31 69.9 69.2 70.1 38.6.1 70.3-30.8 70.4-68.8.1-39.7-30.7-71.1-69.6-71.1-38.6-.2-69.9 31.1-70 69.8z"/>
            <path d="m1295.3 180c.1-55.6 45.3-100.8 100.7-100.8 55.6 0 101 45.7 100.7 101.3-.3 55.7-45.4 100.6-101 100.5-55.4-.1-100.5-45.4-100.4-101zm100.6 70c38.6 0 70-31.2 70-69.8.1-38.5-31.3-70.1-69.7-70.2-38.5-.1-70 31.3-70.1 69.8 0 38.7 31.3 70.2 69.8 70.2z"/>
            <path d="m873.8 88.3h17.7c0-23.7 0-47.1 0-70.8h31v70.8h46.2v30.9c-15.2 0-30.4 0-46.1 0v152.8c-10.4 0-20.3 0-30.8 0 0-2.2 0-4.1 0-6 0-47-.1-94 .1-141 0-4.5-1.1-6.3-5.8-5.8-3.9.4-7.9.1-12.2.1-.1-10.4-.1-20.3-.1-31z"/>
            <path d="m1015.5 115.1c14.7-13.2 31.5-22.3 50.9-25.7 6.8-1.2 13.8-1.3 21.2-2v28.4c0 3.5-2.6 2.9-4.6 2.9-15.4.2-29.2 5.1-41.1 14.6-17.3 13.7-26.7 31.7-27 53.9-.3 26.3-.1 52.7-.1 79v5.8c-10.3 0-20.2 0-30.5 0 0-61.1 0-122.1 0-183.3h29.9v25.8c.5.2.9.4 1.3.6z"/>
        </g>
        <path d="m23.075695 16.136992c.788702.142108 1.591615.23448 2.366108.426327 5.343282 1.321609 9.393376 5.854873 10.146551 11.326052 1.001867 7.275959-3.73035 13.926641-10.942359 15.369042-.518699.106583-1.051605.163427-1.577407.241587-2.415846 0-4.831691 0-7.247538 0 0-4.583002 0-9.166003.0072-13.741902 0-.305532.02841-.618169.07816-.916598.468959-3.076652 3.275603-5.400126 6.352254-5.279335 3.247181.135003 5.854875 2.643221 6.060931 5.840663.305534 4.746427-4.526157 8.078872-8.853364 6.103563-.09238-.04263-.18474-.07816-.319745-.127898 0 1.456613-.0072 2.863488.01421 4.270363 0 .08527.163425.213163.270006.241585 1.385561.397904 2.79954.476064 4.220625.248689 6.011193-.966338 9.890758-6.671998 8.590465-12.597925-1.200819-5.48539-6.68621-9.073631-12.150284-7.95808-4.945379.994761-8.398617 5.215385-8.412828 10.274451-.0072 4.426683 0 8.853363 0 13.280046 0 .120793.01421.234479.02841.355272-1.087131 0-2.181366 0-3.268497 0 0-4.902746 0-9.805491 0-14.708238.04264-.277112.09237-.554223.127898-.838442.753175-5.520918 4.781953-10.03997 10.189184-11.390001.767387-.191846 1.556089-.284216 2.330581-.419221h1.98952z" fill="#e6461a" stroke-width=".071054"/>
    </g>
</svg>