<?xml version="1.0" encoding="UTF-8" standalone="no"?>
<!-- Created with Inkscape (http://www.inkscape.org/) -->
<svg xmlns:dc="http://purl.org/dc/elements/1.1/" xmlns:cc="http://creativecommons.org/ns#" xmlns:rdf="http://www.w3.org/1999/02/22-rdf-syntax-ns#" xmlns:svg="http://www.w3.org/2000/svg" xmlns="http://www.w3.org/2000/svg" xmlns:xlink="http://www.w3.org/1999/xlink" version="1.1" width="282" height="75" id="Monero-Logo">
  <metadata id="metadata8">
    <rdf:RDF>
      <cc:Work rdf:about="">
        <dc:format>image/svg+xml</dc:format>
        <dc:type rdf:resource="http://purl.org/dc/dcmitype/StillImage"/>
        <dc:title/>
      </cc:Work>
    </rdf:RDF>
  </metadata>
  <defs id="defs6"/>
  <path transform="scale(0.5, 0.5)" d="M0 24.48C0 10.9601 10.9601 0 24.48 0H520.2C533.72 0 544.68 10.9601 544.68 24.48V128.52C544.68 142.04 533.72 153 520.2 153H24.48C10.9601 153 0 142.04 0 128.52V24.48Z" fill="#eeeeee"/>
  <g transform="translate(10, 5) scale(0.85, 0.85)">
    <path d="m 37.3,0.35329395 c -20.377,0 -36.903,16.524 -36.903,36.902 0,4.074 0.66,7.992 1.88,11.657 l 11.036,0 0,-31.049 23.987,23.987 23.987,-23.987 0,31.049 11.037,0 c 1.22,-3.665 1.88,-7.583 1.88,-11.657 0,-20.378 -16.526,-36.902 -36.904,-36.902" id="path22" style="fill:#ff6600"/>
    <path d="m 21.3164,36.895994 0,19.537 -15.55,0 c 6.478,10.628 18.178,17.726 31.533,17.726 13.355,0 25.056,-7.098 31.533,-17.726 l -15.549,0 0,-19.537 -15.984,15.984 z" id="path26" style="fill:#4c4c4c"/>
    <path d="m 272.7087,47.761494 c -1.951,2.009 -4.317,3.01 -7.099,3.01 -2.458,0 -4.631,-0.772 -6.533,-2.324 -2.445,-1.979 -3.666,-4.674 -3.666,-8.084 0,-3.053 0.972,-5.576 2.916,-7.556 1.937,-1.987 4.331,-2.974 7.184,-2.974 2.817,0 5.212,1.016 7.177,3.045 1.973,2.03 2.959,4.512 2.959,7.449 0,2.945 -0.978,5.418 -2.938,7.434 m 4.097,-18.937 c -3.132,-3.151 -6.877,-4.731 -11.238,-4.731 -2.874,0 -5.561,0.723 -8.048,2.166 -2.496,1.444 -4.455,3.402 -5.877,5.876 -1.423,2.473 -2.137,5.183 -2.137,8.127 0,4.397 1.529,8.192 4.59,11.389 3.058,3.202 6.898,4.796 11.514,4.796 4.411,0 8.165,-1.551 11.26,-4.668 3.095,-3.11 4.639,-6.919 4.639,-11.416 0,-4.533 -1.566,-8.378 -4.703,-11.539" id="path30" style="fill:#4c4c4c"/>
    <path d="m 238.3063,35.970494 c -0.743,0.518 -1.094,0.773 -3.06,0.773 l -7.736,0 0,-6.618 7.496,0 c 1.503,0 1.769,0.113 2.385,0.345 0.614,0.225 1.102,0.601 1.47,1.118 0.368,0.518 0.548,1.133 0.548,1.838 0,1.186 -0.368,2.034 -1.103,2.544 m 0.93,6.093 c 2.049,-0.736 3.587,-1.816 4.607,-3.241 1.021,-1.433 1.524,-3.205 1.524,-5.335 0,-2.019 -0.457,-3.775 -1.381,-5.253 -0.923,-1.478 -2.146,-2.536 -3.661,-3.174 -1.516,-0.638 -4.06,-0.96 -7.639,-0.96 l -11.329,0 0,32.34 6.153,0 0,-13.694 5.37,0 7.28,13.694 6.73,0 -7.654,-14.377 z" id="path34" style="fill:#4c4c4c"/>
    <path d="m 193.7751,24.093494 20.968,0 0,6.025 -14.852,0 0,6.619 14.852,0 0,5.92 -14.852,0 0,7.728 14.852,0 0,6.049 -20.968,0 0,-32.341 z" id="path38" style="fill:#4c4c4c"/>
    <path d="m 161.2868,24.093494 5.891,0 13.874,21.28 0,-21.28 6.153,0 0,32.34 -5.913,0 -13.852,-21.212 0,21.212 -6.153,0 0,-32.34 z" id="path42" style="fill:#4c4c4c"/>
    <use transform="translate(-125.0586,0)" id="use46" x="0" y="0" width="282" height="75" xlink:href="#path30"/>
    <path d="m 89.6882,24.092594 6.025,0 7.473,22.557 7.587,-22.557 5.935,0 5.449,32.341 -5.936,0 -3.474,-20.425 -6.881,20.425 -5.426,0 -6.79,-20.425 -3.542,20.425 -6.003,0 5.583,-32.341 z" id="path50" style="fill:#4c4c4c"/>
  </g>
</svg>